<svg xmlns="http://www.w3.org/2000/svg" viewBox="-0.0008409501751884818 -3.5763505934482964e-7 103.45252990722656 100">
    <path d="M83.19 60.21L58 35.25 23.85 1.31A15.55 15.55 0 0 0 17.6 0C8 0 .2 8.79 0 19.72V67a20.34 20.34 0 0 0 18 20.39 18.66 18.66 0 0 0 2 .11h55.18A19.41 19.41 0 0 0 86 70.2a19.06 19.06 0 0 0-2.81-9.99z" fill="#fff" opacity=".8"></path>
    <path d="M85.86 12.51a15.47 15.47 0 0 0-6.24 1.31L58 35.25 20.28 72.72A18.95 18.95 0 0 0 18 87.39 19.6 19.6 0 0 0 28.29 100h55.16a20.27 20.27 0 0 0 20-20.53V32.23c-.19-10.93-7.99-19.72-17.59-19.72z" fill="#fff" opacity=".8"></path>
</svg>